<?xml version="1.0"?>
<svg xmlns:rdf="http://www.w3.org/1999/02/22-rdf-syntax-ns#" xmlns="http://www.w3.org/2000/svg" xmlns:cc="http://web.resource.org/cc/" xmlns:xlink="http://www.w3.org/1999/xlink" xmlns:dc="http://purl.org/dc/elements/1.1/" id="svg2" viewBox="0 0 804.28 158.11" version="1.0">
  <g id="layer1" transform="translate(-30 -98)">
    <g id="g1901">
      <path id="path1310" d="m50.694 122.66s17.96-9.75 22.603-26.176c-20.456 22.946-31.005 20.586-31.005 20.586l0.42 116.63s10.549-2.37 31.005 20.58c-4.643-16.43-22.603-26.18-22.603-26.18 0-52.57-0.42-52.86-0.42-105.44z" stroke="#000" stroke-width=".25pt" fill-rule="evenodd"/>
      <path id="path3040" d="m60.577 128.79h244.81" stroke="#b4b4b4" stroke-linecap="round" stroke-width="1.3524" fill="none"/>
      <path id="path3042" d="m60.777 148.01h244.62" stroke-opacity=".47335" stroke="#000" stroke-linecap="round" stroke-width="1.7525" fill="none"/>
      <path id="path3044" d="m60.914 167.16h244.37" stroke-opacity=".62382" stroke="#000" stroke-linecap="round" stroke-width="2.0268" fill="none"/>
      <path id="path3046" d="m61.113 186.38h243.93" stroke-opacity=".77429" stroke="#000" stroke-linecap="round" stroke-width="2.425" fill="none"/>
      <path id="path3048" d="m61.25 205.54h243.93" stroke-opacity=".89969" stroke="#000" stroke-linecap="round" stroke-width="2.7" fill="none"/>
      <path id="path3050" d="m61.2 224.51h243.93" stroke="#000" stroke-linecap="round" stroke-width="2.6" fill="none"/>
      <path id="text3052" d="m16.487 154.15c9.64 0 10.24-0.08 13.48-1.88l0.08-0.32c-1.76 0.24-4.32 0.4-6.48 0.4-0.32 0-1-0.04-1.84-0.08 3.08-2.6 4.08-4.04 4.76-7.08l3.12-12.52c5.24 0.44 5.28 0.44 6.08 0.44 1.88 0 2.16-0.36 3.12-4.32l-0.52-0.6c-1.64 2.8-1.84 3-3.28 3-0.36 0-1.28-0.04-2.52-0.08-5.88-0.28-6.6-0.32-7.88-0.32-7 0-12.2 3.8-12.2 8.92 0 1.28 0.28 2.4 1 3.8l3-1.96c-0.76-1.96-0.92-2.56-0.92-3.68 0-2.24 1.04-3.96 3-4.88 1-0.48 2.48-0.68 4.6-0.68 0.84 0 1.64 0.04 3.64 0.2l-3.24 13.04c-1.44 5.88-2.2 6.88-5.6 7.04l-1.4 1.56"/>
      <path id="text3062" d="m11.007 186.96c0.92 0.28 1.4 0.36 2.12 0.36 2.72 0 4.56-1.4 9.84-7.44 3.16 0 5.52 0.04 7.08 0.16-0.08 0.48-0.16 0.96-0.2 1.44-0.08 0.52-0.2 1.28-0.32 2.12-0.08 0.76-0.2 1.52-0.24 1.64-0.12 0.68-0.2 1.32-0.2 1.72 0 0.48 0.4 0.88 0.92 0.88 0.28 0 0.68-0.04 1.16-0.16 1.92-0.36 3.84-0.72 5.76-1.04l0.64-0.96c-0.4 0.04-0.8 0.08-0.92 0.08-1.24 0.12-1.44 0.12-2.04 0.12-1.56 0-2.04-0.4-2.04-1.8 0-2.52 1.6-13.88 2.84-20.12l-0.56-0.4c-0.16 0.16-0.32 0.32-0.44 0.48-0.64 0.64-1 0.8-1.68 0.8-0.48 0-0.64 0-2.28-0.28-1.84-0.28-2.84-0.4-3.64-0.4-1.84 0-3.76 0.92-5.64 2.76-2.12 2.04-3.04 3.84-3.04 5.96 0 0.92 0.12 1.56 0.56 2.72l2.96-1.6c-0.64-1.88-0.84-2.8-0.84-3.72 0-2.28 1.72-3.64 4.64-3.64 0.44 0 0.92 0.04 1.48 0.08l1.6 0.2 0.6 0.04c0.68 0.08 1 0.08 2.08 0.16l-6.92 8.96c-1.68 2.16-4.32 5.24-5.36 6.24-1.6 1.56-2.8 2.12-4.64 2.12-0.68 0-1.04-0.04-1.76-0.28l-1.52 2.8m13.2-8.72l7.72-10.12-1.64 10.12h-6.08"/>
      <path id="text3066" d="m13.687 220.46c1.04 0 1.08 0 2.32 0.04h2.76c2.8 0.08 2.8 0.08 3.44 0.08 2.72 0 4.8-0.52 7.48-1.88 3.6-1.8 5.36-4.12 5.36-7 0-1.24-0.6-2.4-1.6-3.16-0.84-0.64-1.72-0.88-3.64-1.08 3.96-1.8 5.96-4 5.96-6.56 0-2.64-2.16-3.8-7.08-3.8h-0.64l0.32-1.24-3.24 1.4c-3.44 0.52-5.36 1.12-7.2 2.2-3.2 1.96-4.84 4.76-4.84 8.28 0 0.8 0.08 1.4 0.28 2.6l3.2-1.48c-0.36-1.76-0.4-2.2-0.4-2.96 0-2.72 0.84-4.4 2.88-5.72 1.6-1.04 3.2-1.52 5.72-1.68l-2.96 11.84c-1.68 6.92-2.36 7.8-6.24 8.2l-1.88 1.92m11.44-11.64c0.8-0.08 1.16-0.08 1.56-0.08 3.08 0 4.88 1.4 4.88 3.88 0 1.52-0.64 3.28-1.64 4.4-1.08 1.24-2.68 1.88-4.68 1.88-1 0-2.16-0.12-5.92-0.52 3.92-3.48 4.56-4.44 5.4-8.04l0.4-1.52m2.64-10.6c1.96 0.04 2.4 0.12 2.96 0.4 0.96 0.48 1.56 1.64 1.56 2.92 0 1.88-0.92 3.8-2.32 4.84-1.2 0.92-2.4 1.28-4.56 1.32l2.36-9.48"/>
      <path id="path3070" d="m306.08 119.99v113.64" stroke="#000" fill="none"/>
      <use id="use3800" xlink:href="#path1310" transform="matrix(-1 0 0 1 857.42 0)" height="1052.3622" width="744.09448" y="0" x="0"/>
      <path id="path3802" d="m551.93 128.86h244.8" stroke-opacity=".27586" stroke="#000" stroke-linecap="round" stroke-width="1.3524" fill="none"/>
      <path id="path3804" d="m552.13 148.08h244.62" stroke-opacity=".47335" stroke="#000" stroke-linecap="round" stroke-width="1.7525" fill="none"/>
      <path id="path3806" d="m552.26 167.24h244.37" stroke-opacity=".62382" stroke="#000" stroke-linecap="round" stroke-width="2.0268" fill="none"/>
      <path id="path3808" d="m552.46 186.46h243.93" stroke-opacity=".77429" stroke="#000" stroke-linecap="round" stroke-width="2.425" fill="none"/>
      <path id="path3810" d="m552.6 205.61h243.93" stroke-opacity=".89969" stroke="#000" stroke-linecap="round" stroke-width="2.7" fill="none"/>
      <path id="path3812" d="m552.55 224.58h243.93" stroke="#000" stroke-linecap="round" stroke-width="2.6" fill="none"/>
      <path id="path3816" d="m305.94 128.87h244.81" stroke-opacity=".27586" stroke="#000" stroke-linecap="round" stroke-width="1.3524" fill="none"/>
      <path id="path3818" d="m306.14 148.09h244.62" stroke-opacity=".47335" stroke="#000" stroke-linecap="round" stroke-width="1.7525" fill="none"/>
      <path id="path3820" d="m306.28 167.25h244.36" stroke-opacity=".62382" stroke="#000" stroke-linecap="round" stroke-width="2.0268" fill="none"/>
      <path id="path3822" d="m306.47 186.46h243.93" stroke-opacity=".77429" stroke="#000" stroke-linecap="round" stroke-width="2.425" fill="none"/>
      <path id="path3824" d="m306.61 205.62h243.93" stroke-opacity=".89969" stroke="#000" stroke-linecap="round" stroke-width="2.7" fill="none"/>
      <path id="path3826" d="m306.56 224.59h243.93" stroke="#000" stroke-linecap="round" stroke-width="2.6" fill="none"/>
      <path id="path3828" d="m551.44 120.07v113.64" stroke="#000" fill="none"/>
    </g>
  </g>
  <metadata>
    <rdf:RDF>
      <cc:Work>
        <dc:format>image/svg+xml</dc:format>
        <dc:type rdf:resource="http://purl.org/dc/dcmitype/StillImage"/>
        <cc:license rdf:resource="http://creativecommons.org/licenses/publicdomain/"/>
        <dc:publisher>
          <cc:Agent rdf:about="http://openclipart.org/">
            <dc:title>Openclipart</dc:title>
          </cc:Agent>
        </dc:publisher>
      </cc:Work>
      <cc:License rdf:about="http://creativecommons.org/licenses/publicdomain/">
        <cc:permits rdf:resource="http://creativecommons.org/ns#Reproduction"/>
        <cc:permits rdf:resource="http://creativecommons.org/ns#Distribution"/>
        <cc:permits rdf:resource="http://creativecommons.org/ns#DerivativeWorks"/>
      </cc:License>
    </rdf:RDF>
  </metadata>
</svg>
